<svg width="30" height="30" id="Layer_1" xmlns="http://www.w3.org/2000/svg" viewBox="0 0 494.18 494.09">
<defs><style>.cls-1{fill:none;}.cls-2{fill:#f6b133;}</style></defs><circle class="cls-1" cx="247.09" cy="247.09" r="211.71"/><path class="cls-2" d="M247.09,0C110.6,0,0,110.6,0,247.09s110.6,247,247.09,247,247.09-110.6,247.09-247.09S383.49,0,247.09,0ZM247.09,458.81c-116.94,0-211.71-94.78-211.71-211.71S130.16,35.38,247.09,35.38s211.71,94.78,211.71,211.71-94.78,211.71-211.71,211.71Z"/><path class="cls-2" d="M219.53,155.11h-32.12c-2.61,0-4.66-2.14-4.66-4.66v-23.46c0-2.61,2.14-4.66,4.66-4.66h32.12c2.61,0,4.66,2.14,4.66,4.66v23.46c.09,2.51-2.05,4.66-4.66,4.66ZM295.41,155.11h-32.12c-2.61,0-4.66-2.14-4.66-4.66v-23.46c0-2.61,2.14-4.66,4.66-4.66h32.12c2.61,0,4.66,2.14,4.66,4.66v23.46c0,2.51-2.05,4.66-4.66,4.66ZM152.97,247.93h-42.27v-30.07s1.68-41.52,40.69-42.08h178.2v-24.49h42.45v23.65s-1.12,42.73-40.41,43.29l-31.47.84.47,145.42s.47,2.42-2.42,4l-32.77,11.64s-7.26,2.98-7.54-4.38v-157.34h-32.77v144.59s.93,4.28-3.82,6.33l-30.07,10.61s-9.4,3.54-9.31-5.87v-155.95h-28.77l-.19,29.79Z"/></svg>